<?xml version="1.0" encoding="UTF-8" standalone="no"?><!DOCTYPE svg PUBLIC "-//W3C//DTD SVG 1.1//EN" "http://www.w3.org/Graphics/SVG/1.1/DTD/svg11.dtd"><svg width="100%" height="100%" viewBox="0 0 512 512" version="1.1" xmlns="http://www.w3.org/2000/svg" xmlns:xlink="http://www.w3.org/1999/xlink" xml:space="preserve" xmlns:serif="http://www.serif.com/" style="fill-rule:evenodd;clip-rule:evenodd;stroke-linejoin:round;stroke-miterlimit:2;"><path id="Shape-1" serif:id="Shape 1" d="M95.833,431.602c-62.134,-6.497 -101.207,-57.232 -95.232,-100.935c4,-29.258 23.744,-75.299 57.336,-87.64c-3.277,-25.321 -0.108,-45.525 8.121,-68.572c20.439,-57.249 87.581,-106.782 159.701,-91.129c47.551,10.32 88.4,53.679 100.152,113.686c4.726,-6.137 43.274,-23.208 79.4,-8.121c26.112,10.905 32.464,20.629 43.309,71.279c48.465,10.559 54.482,31.746 59.55,45.114c12.298,32.44 -1.414,123.913 -94.739,126.318l-317.598,0Z"/></svg>