<?xml version="1.0" encoding="UTF-8" standalone="no"?><!DOCTYPE svg PUBLIC "-//W3C//DTD SVG 1.1//EN" "http://www.w3.org/Graphics/SVG/1.1/DTD/svg11.dtd"><svg width="100%" height="100%" viewBox="0 0 512 512" version="1.1" xmlns="http://www.w3.org/2000/svg" xmlns:xlink="http://www.w3.org/1999/xlink" xml:space="preserve" xmlns:serif="http://www.serif.com/" style="fill-rule:evenodd;clip-rule:evenodd;stroke-linejoin:round;stroke-miterlimit:2;"><path id="Controller" d="M502.838,367.08l-493.676,0c-5.057,0 -9.162,-4.106 -9.162,-9.162l0,-203.836c0,-5.039 4.078,-9.134 9.162,-9.162l493.676,0c5.084,0.028 9.162,4.123 9.162,9.162l0,203.836c0,4.989 -3.997,9.052 -9.162,9.162Zm-369.564,-187.131l-38.911,0c-5.168,0.11 -9.162,4.17 -9.162,9.162l0,38.267l-46.67,0l0,57.235l46.67,0l0,38.266c0,5.061 4.102,9.163 9.162,9.163l38.911,0c5.088,-0.028 9.162,-4.119 9.162,-9.163l0,-38.266l48.188,0l0,-57.235l-48.188,0l0,-38.267c0,-4.992 -3.993,-9.052 -9.162,-9.162Zm197.932,19.241l-94.771,0c-5.169,0.109 -9.163,4.169 -9.163,9.162l0,95.287c0,5.06 4.102,9.162 9.163,9.162l94.771,0c5.088,-0.027 9.162,-4.119 9.162,-9.162l0,-95.287c0,-4.993 -3.993,-9.053 -9.162,-9.162Zm136.116,0l-94.772,0c-5.087,0.027 -9.162,4.119 -9.162,9.162l0,95.287c0,5.06 4.102,9.162 9.162,9.162l94.772,0c5.087,-0.027 9.162,-4.119 9.162,-9.162l0,-95.287c0,-5.043 -4.075,-9.135 -9.162,-9.162Zm-183.502,11.567c24.874,0 45.038,20.254 45.038,45.238c0,24.985 -20.164,45.239 -45.038,45.239c-24.873,0 -45.038,-20.254 -45.038,-45.239c0,-24.984 20.165,-45.238 45.038,-45.238Zm136.116,0c24.874,0 45.038,20.254 45.038,45.238c0,24.985 -20.164,45.239 -45.038,45.239c-24.874,0 -45.038,-20.254 -45.038,-45.239c0,-24.984 20.164,-45.238 45.038,-45.238Z"/></svg>