<svg clip-rule="evenodd" fill-rule="evenodd" stroke-linejoin="round" stroke-miterlimit="2" viewBox="0 0 512 512" xmlns="http://www.w3.org/2000/svg"><g transform="matrix(.493875 0 0 .493875 3.1362 -.794886)"><path d="m377.245 550.704c3.753-57.451 27.066-104.334 72.733-139.042 78.745-59.844 191.651-45.088 252.456 32.938 5.84 7.494 9.898 9.646 19.588 5.796 96.773-38.444 202.156 32.274 203.984 136.382.064 3.612.01 7.23.01 11.535 5.762 1.333 11.195 2.467 16.568 3.855 51.58 13.344 86.786 64.244 80.746 116.671-6.31 54.646-51.506 97.209-105.684 97.328-186.371.403-372.744.496-559.115-.036-68.61-.194-125.268-56.523-128.945-125.861-3.589-67.653 46.571-128.151 114.018-137.157 10.771-1.439 21.718-1.592 33.641-2.409z"/><path d="m218.151 781.684c-37.958-2.209-76.745-.243-113.692-7.549-65.031-12.853-108.104-75.212-104.216-142.399 3.722-64.352 54.43-118.658 118.854-127.341 3.93-.529 7.818-1.359 12.211-2.136-12.42-66.023 5.089-121.799 58.457-162.448 53.537-40.777 112.038-42.301 173.075-12.715 31.786-57.94 79.275-97.113 144.34-113.167 43.302-10.683 86.169-7.993 128.05 7.631 77.062 28.752 139.809 108.976 139.957 178.807-16.57 2.958-33.08 6.378-49.756 8.479-3.123.395-7.359-4.038-10.332-6.995-87.4-86.839-226.3-86.018-312.556 2.116-27.814 28.419-46.867 61.981-56.1 100.692-1.789 7.504-4.821 10.627-12.339 11.979-118.292 21.259-178.13 148.388-119.115 252.671 1.54 2.722 2.96 5.51 4.437 8.266-.425 1.37-.85 2.739-1.275 4.109z"/></g></svg>