<?xml version="1.0" encoding="UTF-8" standalone="no"?><!DOCTYPE svg PUBLIC "-//W3C//DTD SVG 1.1//EN" "http://www.w3.org/Graphics/SVG/1.1/DTD/svg11.dtd"><svg width="100%" height="100%" viewBox="0 0 512 512" version="1.1" xmlns="http://www.w3.org/2000/svg" xmlns:xlink="http://www.w3.org/1999/xlink" xml:space="preserve" xmlns:serif="http://www.serif.com/" style="fill-rule:evenodd;clip-rule:evenodd;stroke-linejoin:round;stroke-miterlimit:2;"><path id="π" d="M401.848,445.17c-15.403,0 -27.436,-2.407 -36.101,-7.221c-8.664,-4.813 -15.162,-11.311 -19.494,-19.494c-4.332,-8.183 -7.1,-17.69 -8.304,-28.52c-1.203,-10.83 -1.805,-22.503 -1.805,-35.018l0,-233.935l-168.231,0l0,319.134l-61.371,0l0,-319.134l-50.542,0l0,-54.152l397.112,0l0,54.152l-55.596,0l0,226.715c0,5.295 0.121,10.589 0.361,15.884c0.241,5.295 1.204,10.109 2.888,14.441c1.685,4.332 4.332,7.822 7.943,10.469c3.61,2.647 9.025,3.971 16.245,3.971c5.295,0 10.469,-0.722 15.524,-2.166c5.054,-1.444 10.228,-3.369 15.523,-5.776l0,46.931c-9.146,4.332 -17.93,7.702 -26.354,10.109c-8.423,2.406 -17.689,3.61 -27.798,3.61Z" style="fill-rule:nonzero;"/></svg>