<?xml version="1.0" encoding="UTF-8" standalone="no"?><!DOCTYPE svg PUBLIC "-//W3C//DTD SVG 1.1//EN" "http://www.w3.org/Graphics/SVG/1.1/DTD/svg11.dtd"><svg width="100%" height="100%" viewBox="0 0 512 512" version="1.1" xmlns="http://www.w3.org/2000/svg" xmlns:xlink="http://www.w3.org/1999/xlink" xml:space="preserve" xmlns:serif="http://www.serif.com/" style="fill-rule:evenodd;clip-rule:evenodd;stroke-linejoin:round;stroke-miterlimit:2;"><g id="_---" serif:id="&lt;/&gt;"><path d="M143.895,360.93l-143.895,-76.474l0,-35.57l143.895,-76.474l0,30.945l-103.738,54.066c-4.239,2.134 -8.199,3.972 -11.88,5.513c-3.681,1.541 -6.414,2.549 -8.199,3.023c2.008,0.475 4.908,1.483 8.701,3.024c3.793,1.541 7.585,3.379 11.378,5.513l103.738,54.422l0,32.012Z" style="fill-rule:nonzero;"/><path d="M180.706,423.177l118.797,-334.354l31.791,0l-118.797,334.354l-31.791,0Z" style="fill-rule:nonzero;"/><path d="M368.105,360.93l0,-30.945l103.738,-54.066c4.239,-2.134 8.199,-3.972 11.88,-5.513c3.681,-1.542 6.414,-2.549 8.199,-3.024c-2.008,-0.474 -4.908,-1.482 -8.701,-3.023c-3.793,-1.542 -7.585,-3.379 -11.378,-5.513l-103.738,-54.422l0,-32.012l143.895,76.474l0,35.57l-143.895,76.474Z" style="fill-rule:nonzero;"/></g></svg>