<?xml version="1.0" encoding="UTF-8" standalone="no"?><!DOCTYPE svg PUBLIC "-//W3C//DTD SVG 1.1//EN" "http://www.w3.org/Graphics/SVG/1.1/DTD/svg11.dtd"><svg width="100%" height="100%" viewBox="0 0 512 512" version="1.1" xmlns="http://www.w3.org/2000/svg" xmlns:xlink="http://www.w3.org/1999/xlink" xml:space="preserve" xmlns:serif="http://www.serif.com/" style="fill-rule:evenodd;clip-rule:evenodd;stroke-linejoin:round;stroke-miterlimit:2;"><g id="Group-1" serif:id="Group 1"><path id="Rectangle-1" serif:id="Rectangle 1" d="M307.2,194.56l-102.4,0l0,-102.4l102.4,0l0,102.4Zm-79.872,-79.872l0,57.344l57.344,0l0,-57.344l-57.344,0Z"/><path id="Rectangle-1-copy" serif:id="Rectangle 1 copy" d="M102.4,419.84l-102.4,0l0,-102.4l102.4,0l0,102.4Zm-79.872,-79.872l0,57.344l57.344,0l0,-57.344l-57.344,0Z"/><path id="Rectangle-1-copy-2" serif:id="Rectangle 1 copy 2" d="M512,419.84l-102.4,0l0,-102.4l102.4,0l0,102.4Zm-79.872,-79.872l0,57.344l57.344,0l0,-57.344l-57.344,0Z"/><path id="Shape-2" serif:id="Shape 2" d="M226.694,188.543l-132.096,153.6l-17.164,-14.59l132.096,-153.6l17.164,14.59Z"/><path id="Shape-3" serif:id="Shape 3" d="M434.504,324.408l-17.04,14.736l-131.072,-151.552l17.04,-14.736l131.072,151.552Z"/></g></svg>